<svg xmlns="http://www.w3.org/2000/svg" viewBox="0 0 40 40"><defs><linearGradient id="a" x1="32.04%" x2="68.48%" y1="100%" y2="0%"><stop offset="0%" stop-color="#F60"/><stop offset="100%" stop-color="#F90"/></linearGradient></defs><g fill="none" fill-rule="evenodd"><path fill="#FF9B1E" d="M8.41 2h23.18c2.23 0 3.04.23 3.85.67a4.54 4.54 0 0 1 1.9 1.89c.43.81.66 1.62.66 3.85v23.18c0 2.23-.23 3.04-.67 3.85a4.54 4.54 0 0 1-1.89 1.9c-.81.43-1.62.66-3.85.66H8.41c-2.23 0-3.04-.23-3.85-.67a4.54 4.54 0 0 1-1.9-1.89C2.24 34.63 2 33.82 2 31.6V8.41c0-2.23.23-3.04.67-3.85a4.54 4.54 0 0 1 1.89-1.9C5.37 2.24 6.18 2 8.4 2z"/><path fill="#FFF" fill-rule="nonzero" d="M20 34a14 14 0 1 1 0-28 14 14 0 0 1 0 28zm0-12.1a1.9 1.9 0 1 0 0-3.8 1.9 1.9 0 0 0 0 3.8zm-2.86-5.08a3.5 3.5 0 1 0 0-7 3.5 3.5 0 0 0 0 7zm9.54 3.82a3.5 3.5 0 1 0 0-7 3.5 3.5 0 0 0 0 7zm-3.82 9.54a3.5 3.5 0 1 0 0-7 3.5 3.5 0 0 0 0 7zm-9.54-3.82a3.5 3.5 0 1 0 0-7 3.5 3.5 0 0 0 0 7z"/></g></svg>
