<svg viewBox="0 0 170 170" fill="none" xmlns="http://www.w3.org/2000/svg">
<rect width="170" height="170" fill="white"/>
<rect width="170" height="170" rx="28" fill="#121212"/>
<path fill-rule="evenodd" clip-rule="evenodd" d="M85.0001 120.55C99.0131 120.55 109.591 109.715 109.591 97.2956C109.591 84.8761 99.0131 74.0408 85.0001 74.0408C70.9871 74.0408 60.4089 84.8761 60.4089 97.2956C60.4089 109.715 70.9871 120.55 85.0001 120.55ZM85.0001 132.846C105.372 132.846 121.887 116.929 121.887 97.2956C121.887 77.6617 105.372 61.7452 85.0001 61.7452C64.6281 61.7452 48.1133 77.6617 48.1133 97.2956C48.1133 116.929 64.6281 132.846 85.0001 132.846Z" fill="white"/>
<path fill-rule="evenodd" clip-rule="evenodd" d="M113.601 50.2515H56.3994V37.9559H113.601V50.2515Z" fill="white"/>
</svg>
