<svg width="30" height="30" xmlns="http://www.w3.org/2000/svg" viewBox="0 0 512 512">
  <g>
    <path d="m256,30c30.52,0,60.12,5.97,87.96,17.75,26.91,11.38,51.08,27.68,71.85,48.45,20.77,20.77,37.06,44.94,48.45,71.85,11.78,27.84,17.75,57.44,17.75,87.96s-5.97,60.12-17.75,87.96c-11.38,26.91-27.68,51.08-48.45,71.85-20.77,20.77-44.94,37.06-71.85,48.45-27.84,11.78-57.44,17.75-87.96,17.75s-60.12-5.97-87.96-17.75c-26.91-11.38-51.08-27.68-71.85-48.45-20.77-20.77-37.06-44.94-48.45-71.85-11.78-27.84-17.75-57.44-17.75-87.96s5.97-60.12,17.75-87.96c11.38-26.91,27.68-51.08,48.45-71.85s44.94-37.06,71.85-48.45c27.84-11.78,57.44-17.75,87.96-17.75m0-30C114.62,0,0,114.62,0,256s114.62,256,256,256,256-114.62,256-256S397.38,0,256,0h0Z"/>
  </g>
  <g>
    <path d="m256.41,216.39l28.95-8.64c5.27-1.57,9.46-7.36,9.32-12.86l-1.98-73.98c-.15-5.5,4.1-11.07,9.45-12.37l2.46-.6c5.34-1.31,11.77,1.63,14.29,6.52l49.08,95.37c2.52,4.89,1.14,11.79-3.07,15.34l-62.93,53.11c-4.2,3.55-7.64,10.95-7.64,16.45v126.25c0,5.5-4.5,9.99-10,9.98l-18.33-.03c-5.5,0-14.5,0-20,0l-18.33.03c-5.5,0-10-4.48-10-9.98v-126.25c0-5.5-3.44-12.9-7.64-16.45l-62.93-53.11c-4.2-3.55-5.58-10.45-3.07-15.34l49.08-95.37c2.52-4.89,8.95-7.82,14.29-6.52l2.46.6c5.34,1.31,9.59,6.87,9.45,12.37l-1.98,73.98c-.15,5.5,4.04,11.28,9.32,12.86l28.95,8.64c.27.08.55.08.82,0Z"/>
  </g>
</svg>
