<svg width="260" height="48" viewBox="0 0 260 48" fill="none" xmlns="http://www.w3.org/2000/svg">
<rect width="260" height="48" fill="white"/>
<g clip-path="url(#clip0_1_7)">
<path d="M28.3151 10.7578C30.1034 10.7578 31.8377 11.1076 33.469 11.7979C35.0458 12.4646 36.462 13.4197 37.679 14.6367C38.896 15.8537 39.8504 17.2699 40.5178 18.8467C41.2081 20.4779 41.5579 22.2123 41.5579 24.0006C41.5579 25.7889 41.2081 27.5232 40.5178 29.1545C39.851 30.7313 38.896 32.1475 37.679 33.3645C36.462 34.5814 35.0458 35.5359 33.469 36.2033C31.8377 36.8936 30.1034 37.2434 28.3151 37.2434C26.5268 37.2434 24.7924 36.8936 23.1612 36.2033C21.5844 35.5365 20.1682 34.5814 18.9512 33.3645C17.7342 32.1475 16.7797 30.7313 16.1124 29.1545C15.4221 27.5232 15.0723 25.7889 15.0723 24.0006C15.0723 22.2123 15.4221 20.4779 16.1124 18.8467C16.7792 17.2699 17.7342 15.8537 18.9512 14.6367C20.1682 13.4197 21.5844 12.4652 23.1612 11.7979C24.7924 11.1076 26.5268 10.7578 28.3151 10.7578ZM28.3151 9C20.0311 9 13.3151 15.716 13.3151 24C13.3151 32.284 20.0311 39 28.3151 39C36.5991 39 43.3151 32.284 43.3151 24C43.3151 15.716 36.5991 9 28.3151 9Z" fill="#231F20"/>
<path d="M28.3391 21.6791L30.0354 21.1728C30.3442 21.0809 30.5897 20.7416 30.5815 20.4193L30.4655 16.0846C30.4567 15.7623 30.7057 15.4359 31.0192 15.3598L31.1633 15.3246C31.4762 15.2478 31.853 15.4201 32.0007 15.7066L34.8764 21.2947C35.0241 21.5812 34.9432 21.9855 34.6966 22.1936L31.0092 25.3055C30.7632 25.5135 30.5616 25.9471 30.5616 26.2693V33.6668C30.5616 33.9891 30.2979 34.2521 29.9757 34.2516L28.9016 34.2498C28.5794 34.2498 28.052 34.2498 27.7298 34.2498L26.6557 34.2516C26.3335 34.2516 26.0698 33.9891 26.0698 33.6668V26.2693C26.0698 25.9471 25.8682 25.5135 25.6221 25.3055L21.9348 22.1936C21.6887 21.9855 21.6079 21.5812 21.7549 21.2947L24.6307 15.7066C24.7784 15.4201 25.1551 15.2484 25.468 15.3246L25.6122 15.3598C25.9251 15.4365 26.1741 15.7623 26.1659 16.0846L26.0499 20.4193C26.0411 20.7416 26.2866 21.0803 26.596 21.1728L28.2923 21.6791C28.3081 21.6838 28.3245 21.6838 28.3403 21.6791H28.3391Z" fill="#231F20"/>
</g>
<path d="M58.6423 20.75V22.2841H53.094V20.75H58.6423ZM54.6153 30.5681V19.6122C54.6153 18.9985 54.7495 18.4893 55.018 18.0845C55.2865 17.6754 55.6423 17.3707 56.0855 17.1704C56.5287 16.9659 57.0102 16.8636 57.5301 16.8636C57.9136 16.8636 58.2417 16.8956 58.5145 16.9595C58.7872 17.0191 58.9896 17.0745 59.1217 17.1257L58.6743 18.6725C58.5848 18.647 58.4697 18.6172 58.3291 18.5831C58.1885 18.5447 58.018 18.5255 57.8177 18.5255C57.3532 18.5255 57.0208 18.6406 56.8206 18.8707C56.6245 19.1008 56.5265 19.4332 56.5265 19.8679V30.5681H54.6153ZM60.6142 30.5681V20.75H62.4615V22.3096H62.5638C62.7428 21.7812 63.0581 21.3657 63.5098 21.0632C63.9658 20.7564 64.4814 20.6029 65.0567 20.6029C65.176 20.6029 65.3167 20.6072 65.4786 20.6157C65.6448 20.6243 65.7747 20.6349 65.8685 20.6477V22.4758C65.7918 22.4545 65.6554 22.4311 65.4594 22.4055C65.2634 22.3757 65.0674 22.3608 64.8713 22.3608C64.4196 22.3608 64.0169 22.4566 63.6632 22.6484C63.3138 22.8359 63.0368 23.098 62.8323 23.4346C62.6277 23.767 62.5255 24.1463 62.5255 24.5724V30.5681H60.6142ZM71.3065 30.7663C70.3861 30.7663 69.5828 30.5554 68.8967 30.1335C68.2107 29.7116 67.678 29.1214 67.2987 28.3629C66.9195 27.6044 66.7298 26.718 66.7298 25.7038C66.7298 24.6853 66.9195 23.7947 67.2987 23.0319C67.678 22.2691 68.2107 21.6768 68.8967 21.2549C69.5828 20.8331 70.3861 20.6221 71.3065 20.6221C72.227 20.6221 73.0303 20.8331 73.7163 21.2549C74.4024 21.6768 74.9351 22.2691 75.3143 23.0319C75.6936 23.7947 75.8832 24.6853 75.8832 25.7038C75.8832 26.718 75.6936 27.6044 75.3143 28.3629C74.9351 29.1214 74.4024 29.7116 73.7163 30.1335C73.0303 30.5554 72.227 30.7663 71.3065 30.7663ZM71.3129 29.1619C71.9095 29.1619 72.4038 29.0042 72.7959 28.6889C73.1879 28.3735 73.4777 27.9538 73.6652 27.4297C73.857 26.9055 73.9528 26.3281 73.9528 25.6974C73.9528 25.071 73.857 24.4957 73.6652 23.9716C73.4777 23.4431 73.1879 23.0191 72.7959 22.6995C72.4038 22.3799 71.9095 22.2201 71.3129 22.2201C70.7121 22.2201 70.2135 22.3799 69.8172 22.6995C69.4251 23.0191 69.1332 23.4431 68.9415 23.9716C68.754 24.4957 68.6602 25.071 68.6602 25.6974C68.6602 26.3281 68.754 26.9055 68.9415 27.4297C69.1332 27.9538 69.4251 28.3735 69.8172 28.6889C70.2135 29.0042 70.7121 29.1619 71.3129 29.1619ZM74.3428 17.4772V18.8196H68.2767V17.4772H74.3428ZM79.9278 24.7386V30.5681H78.0166V20.75H79.8511V22.348H79.9725C80.1984 21.8281 80.5521 21.4105 81.0336 21.0951C81.5194 20.7798 82.1309 20.6221 82.8681 20.6221C83.5372 20.6221 84.1231 20.7627 84.626 21.044C85.1288 21.321 85.5187 21.7343 85.7957 22.2841C86.0727 22.8338 86.2112 23.5135 86.2112 24.3231V30.5681H84.3V24.5532C84.3 23.8416 84.1146 23.2855 83.7439 22.8849C83.3731 22.4801 82.8639 22.2777 82.2162 22.2777C81.773 22.2777 81.3788 22.3735 81.0336 22.5653C80.6927 22.7571 80.4221 23.0383 80.2218 23.4091C80.0258 23.7755 79.9278 24.2187 79.9278 24.7386ZM93.3575 20.75V22.2841H87.9946V20.75H93.3575ZM89.4328 18.3977H91.344V27.6853C91.344 28.0561 91.3994 28.3352 91.5102 28.5227C91.621 28.7059 91.7637 28.8316 91.9385 28.8998C92.1174 28.9637 92.3113 28.9957 92.5201 28.9957C92.6735 28.9957 92.8078 28.985 92.9228 28.9637C93.0379 28.9424 93.1274 28.9254 93.1913 28.9126L93.5365 30.4914C93.4257 30.5341 93.268 30.5767 93.0635 30.6193C92.8589 30.6662 92.6032 30.6917 92.2964 30.696C91.7936 30.7045 91.3248 30.615 90.8902 30.4275C90.4555 30.24 90.1039 29.9502 89.8355 29.5582C89.567 29.1662 89.4328 28.674 89.4328 28.0816V18.3977ZM99.5977 30.7663C98.6304 30.7663 97.7973 30.5596 97.0984 30.1463C96.4038 29.7287 95.8669 29.1427 95.4876 28.3885C95.1126 27.6299 94.9251 26.7414 94.9251 25.723C94.9251 24.7173 95.1126 23.8309 95.4876 23.0639C95.8669 22.2968 96.3953 21.6981 97.0729 21.2677C97.7547 20.8373 98.5516 20.6221 99.4635 20.6221C100.017 20.6221 100.554 20.7137 101.074 20.897C101.594 21.0802 102.061 21.3679 102.474 21.7599C102.887 22.152 103.213 22.6612 103.452 23.2876C103.691 23.9098 103.81 24.6662 103.81 25.5568V26.2343H96.0054V24.8025H101.937C101.937 24.2997 101.835 23.8544 101.63 23.4666C101.426 23.0745 101.138 22.7656 100.767 22.5397C100.401 22.3139 99.9706 22.201 99.4763 22.201C98.9393 22.201 98.4706 22.3331 98.07 22.5973C97.6737 22.8572 97.3669 23.1981 97.1496 23.62C96.9365 24.0376 96.83 24.4914 96.83 24.9815V26.1001C96.83 26.7564 96.945 27.3146 97.1751 27.7748C97.4095 28.235 97.7355 28.5866 98.1531 28.8295C98.5707 29.0681 99.0587 29.1875 99.6169 29.1875C99.9791 29.1875 100.309 29.1363 100.608 29.0341C100.906 28.9275 101.164 28.7699 101.381 28.561C101.598 28.3522 101.765 28.0944 101.88 27.7876L103.689 28.1136C103.544 28.6463 103.284 29.1129 102.909 29.5135C102.538 29.9098 102.071 30.2187 101.509 30.4403C100.951 30.6576 100.314 30.7663 99.5977 30.7663ZM107.842 24.7386V30.5681H105.931V20.75H107.765V22.348H107.887C108.112 21.8281 108.466 21.4105 108.948 21.0951C109.433 20.7798 110.045 20.6221 110.782 20.6221C111.451 20.6221 112.037 20.7627 112.54 21.044C113.043 21.321 113.433 21.7343 113.71 22.2841C113.987 22.8338 114.125 23.5135 114.125 24.3231V30.5681H112.214V24.5532C112.214 23.8416 112.029 23.2855 111.658 22.8849C111.287 22.4801 110.778 22.2777 110.13 22.2777C109.687 22.2777 109.293 22.3735 108.948 22.5653C108.607 22.7571 108.336 23.0383 108.136 23.4091C107.94 23.7755 107.842 24.2187 107.842 24.7386ZM124.046 23.147L122.313 23.4538C122.241 23.2322 122.126 23.0213 121.968 22.821C121.815 22.6207 121.606 22.4566 121.342 22.3288C121.078 22.201 120.747 22.137 120.351 22.137C119.81 22.137 119.358 22.2585 118.996 22.5014C118.634 22.74 118.453 23.049 118.453 23.4282C118.453 23.7564 118.574 24.0206 118.817 24.2208C119.06 24.4211 119.452 24.5852 119.993 24.713L121.553 25.071C122.456 25.2798 123.13 25.6015 123.573 26.0362C124.016 26.4708 124.237 27.0355 124.237 27.7301C124.237 28.3181 124.067 28.8423 123.726 29.3025C123.389 29.7585 122.919 30.1164 122.313 30.3764C121.713 30.6363 121.016 30.7663 120.223 30.7663C119.124 30.7663 118.227 30.5319 117.532 30.0632C116.838 29.5902 116.411 28.919 116.254 28.0497L118.101 27.7684C118.216 28.25 118.453 28.6143 118.811 28.8615C119.169 29.1044 119.635 29.2258 120.21 29.2258C120.837 29.2258 121.338 29.0958 121.713 28.8359C122.088 28.5717 122.275 28.25 122.275 27.8707C122.275 27.5639 122.16 27.3061 121.93 27.0973C121.704 26.8885 121.357 26.7308 120.888 26.6243L119.226 26.2599C118.31 26.0511 117.632 25.7187 117.193 25.2627C116.759 24.8068 116.541 24.2294 116.541 23.5305C116.541 22.951 116.703 22.4439 117.027 22.0092C117.351 21.5745 117.799 21.2358 118.37 20.9929C118.941 20.7457 119.595 20.6221 120.332 20.6221C121.393 20.6221 122.228 20.8522 122.838 21.3125C123.447 21.7684 123.85 22.3799 124.046 23.147ZM130.475 30.7663C129.554 30.7663 128.751 30.5554 128.065 30.1335C127.379 29.7116 126.846 29.1214 126.467 28.3629C126.087 27.6044 125.898 26.718 125.898 25.7038C125.898 24.6853 126.087 23.7947 126.467 23.0319C126.846 22.2691 127.379 21.6768 128.065 21.2549C128.751 20.8331 129.554 20.6221 130.475 20.6221C131.395 20.6221 132.198 20.8331 132.884 21.2549C133.57 21.6768 134.103 22.2691 134.482 23.0319C134.862 23.7947 135.051 24.6853 135.051 25.7038C135.051 26.718 134.862 27.6044 134.482 28.3629C134.103 29.1214 133.57 29.7116 132.884 30.1335C132.198 30.5554 131.395 30.7663 130.475 30.7663ZM130.481 29.1619C131.077 29.1619 131.572 29.0042 131.964 28.6889C132.356 28.3735 132.646 27.9538 132.833 27.4297C133.025 26.9055 133.121 26.3281 133.121 25.6974C133.121 25.071 133.025 24.4957 132.833 23.9716C132.646 23.4431 132.356 23.0191 131.964 22.6995C131.572 22.3799 131.077 22.2201 130.481 22.2201C129.88 22.2201 129.381 22.3799 128.985 22.6995C128.593 23.0191 128.301 23.4431 128.109 23.9716C127.922 24.4957 127.828 25.071 127.828 25.6974C127.828 26.3281 127.922 26.9055 128.109 27.4297C128.301 27.9538 128.593 28.3735 128.985 28.6889C129.381 29.0042 129.88 29.1619 130.481 29.1619ZM133.511 17.4772V18.8196H127.445V17.4772H133.511ZM142.969 24.2081V25.8636H137.165V24.2081H142.969ZM150.458 17.4772V30.5681H148.476V19.4588H148.399L145.267 21.5042V19.6122L148.534 17.4772H150.458ZM158.965 17.4772V30.5681H156.984V19.4588H156.907L153.775 21.5042V19.6122L157.041 17.4772H158.965ZM167.115 20.75V22.2841H161.752V20.75H167.115ZM163.191 18.3977H165.102V27.6853C165.102 28.0561 165.157 28.3352 165.268 28.5227C165.379 28.7059 165.522 28.8316 165.696 28.8998C165.875 28.9637 166.069 28.9957 166.278 28.9957C166.431 28.9957 166.566 28.985 166.681 28.9637C166.796 28.9424 166.885 28.9254 166.949 28.9126L167.294 30.4914C167.183 30.5341 167.026 30.5767 166.821 30.6193C166.617 30.6662 166.361 30.6917 166.054 30.696C165.551 30.7045 165.083 30.615 164.648 30.4275C164.213 30.24 163.862 29.9502 163.593 29.5582C163.325 29.1662 163.191 28.674 163.191 28.0816V18.3977ZM170.438 34.25C170.152 34.25 169.892 34.2265 169.658 34.1797C169.423 34.137 169.249 34.0902 169.134 34.039L169.594 32.473C169.943 32.5667 170.254 32.6072 170.527 32.5944C170.8 32.5816 171.041 32.4794 171.249 32.2876C171.462 32.0958 171.65 31.7826 171.812 31.348L172.048 30.696L168.456 20.75H170.501L172.988 28.3693H173.09L175.577 20.75H177.629L173.582 31.8785C173.395 32.3899 173.156 32.8224 172.867 33.1761C172.577 33.5341 172.232 33.8025 171.831 33.9815C171.43 34.1605 170.966 34.25 170.438 34.25ZM185.21 24.2081V25.8636H179.406V24.2081H185.21ZM195.114 23.147L193.382 23.4538C193.309 23.2322 193.194 23.0213 193.037 22.821C192.883 22.6207 192.674 22.4566 192.41 22.3288C192.146 22.201 191.816 22.137 191.419 22.137C190.878 22.137 190.427 22.2585 190.064 22.5014C189.702 22.74 189.521 23.049 189.521 23.4282C189.521 23.7564 189.642 24.0206 189.885 24.2208C190.128 24.4211 190.52 24.5852 191.062 24.713L192.621 25.071C193.525 25.2798 194.198 25.6015 194.641 26.0362C195.084 26.4708 195.306 27.0355 195.306 27.7301C195.306 28.3181 195.135 28.8423 194.794 29.3025C194.458 29.7585 193.987 30.1164 193.382 30.3764C192.781 30.6363 192.084 30.7663 191.292 30.7663C190.192 30.7663 189.295 30.5319 188.601 30.0632C187.906 29.5902 187.48 28.919 187.322 28.0497L189.169 27.7684C189.285 28.25 189.521 28.6143 189.879 28.8615C190.237 29.1044 190.704 29.2258 191.279 29.2258C191.905 29.2258 192.406 29.0958 192.781 28.8359C193.156 28.5717 193.343 28.25 193.343 27.8707C193.343 27.5639 193.228 27.3061 192.998 27.0973C192.772 26.8885 192.425 26.7308 191.956 26.6243L190.294 26.2599C189.378 26.0511 188.701 25.7187 188.262 25.2627C187.827 24.8068 187.61 24.2294 187.61 23.5305C187.61 22.951 187.772 22.4439 188.096 22.0092C188.419 21.5745 188.867 21.2358 189.438 20.9929C190.009 20.7457 190.663 20.6221 191.4 20.6221C192.461 20.6221 193.297 20.8522 193.906 21.3125C194.515 21.7684 194.918 22.3799 195.114 23.147ZM201.99 20.75V22.2841H196.627V20.75H201.99ZM198.066 18.3977H199.977V27.6853C199.977 28.0561 200.032 28.3352 200.143 28.5227C200.254 28.7059 200.397 28.8316 200.571 28.8998C200.75 28.9637 200.944 28.9957 201.153 28.9957C201.306 28.9957 201.441 28.985 201.556 28.9637C201.671 28.9424 201.76 28.9254 201.824 28.9126L202.169 30.4914C202.058 30.5341 201.901 30.5767 201.696 30.6193C201.492 30.6662 201.236 30.6917 200.929 30.696C200.426 30.7045 199.958 30.615 199.523 30.4275C199.088 30.24 198.737 29.9502 198.468 29.5582C198.2 29.1662 198.066 28.674 198.066 28.0816V18.3977ZM206.962 30.7855C206.34 30.7855 205.777 30.6704 205.274 30.4403C204.771 30.2059 204.373 29.8672 204.079 29.424C203.789 28.9808 203.644 28.4375 203.644 27.794C203.644 27.24 203.751 26.7841 203.964 26.4261C204.177 26.0681 204.465 25.7848 204.827 25.576C205.189 25.3672 205.594 25.2095 206.041 25.1029C206.489 24.9964 206.945 24.9154 207.409 24.86C207.997 24.7919 208.475 24.7365 208.841 24.6939C209.207 24.647 209.474 24.5724 209.64 24.4701C209.806 24.3679 209.889 24.2017 209.889 23.9716V23.9268C209.889 23.3686 209.732 22.936 209.416 22.6292C209.105 22.3224 208.641 22.169 208.023 22.169C207.379 22.169 206.872 22.3118 206.501 22.5973C206.135 22.8785 205.881 23.1917 205.741 23.5369L203.945 23.1278C204.158 22.5312 204.469 22.0497 204.878 21.6832C205.291 21.3125 205.766 21.044 206.303 20.8778C206.84 20.7074 207.405 20.6221 207.997 20.6221C208.389 20.6221 208.805 20.669 209.244 20.7627C209.687 20.8522 210.1 21.0184 210.484 21.2613C210.872 21.5042 211.189 21.8515 211.436 22.3032C211.683 22.7507 211.807 23.3324 211.807 24.0483V30.5681H209.94V29.2258H209.864C209.74 29.473 209.555 29.7159 209.308 29.9545C209.06 30.1931 208.743 30.3913 208.355 30.549C207.967 30.7066 207.503 30.7855 206.962 30.7855ZM207.377 29.2514C207.906 29.2514 208.357 29.147 208.732 28.9382C209.112 28.7294 209.399 28.4566 209.595 28.12C209.796 27.7791 209.896 27.4147 209.896 27.027V25.7613C209.827 25.8295 209.695 25.8934 209.499 25.9531C209.308 26.0085 209.088 26.0575 208.841 26.1001C208.594 26.1385 208.353 26.1747 208.119 26.2088C207.884 26.2386 207.688 26.2642 207.531 26.2855C207.16 26.3324 206.821 26.4112 206.514 26.522C206.212 26.6328 205.969 26.7926 205.786 27.0014C205.607 27.2059 205.517 27.4787 205.517 27.8196C205.517 28.2926 205.692 28.6505 206.041 28.8934C206.391 29.1321 206.836 29.2514 207.377 29.2514ZM214.353 30.5681V20.75H216.2V22.3096H216.302C216.481 21.7812 216.796 21.3657 217.248 21.0632C217.704 20.7564 218.22 20.6029 218.795 20.6029C218.914 20.6029 219.055 20.6072 219.217 20.6157C219.383 20.6243 219.513 20.6349 219.607 20.6477V22.4758C219.53 22.4545 219.394 22.4311 219.198 22.4055C219.002 22.3757 218.806 22.3608 218.61 22.3608C218.158 22.3608 217.755 22.4566 217.402 22.6484C217.052 22.8359 216.775 23.098 216.571 23.4346C216.366 23.767 216.264 24.1463 216.264 24.5724V30.5681H214.353ZM226.424 20.75V22.2841H221.061V20.75H226.424ZM222.499 18.3977H224.41V27.6853C224.41 28.0561 224.466 28.3352 224.577 28.5227C224.687 28.7059 224.83 28.8316 225.005 28.8998C225.184 28.9637 225.378 28.9957 225.587 28.9957C225.74 28.9957 225.874 28.985 225.989 28.9637C226.104 28.9424 226.194 28.9254 226.258 28.9126L226.603 30.4914C226.492 30.5341 226.334 30.5767 226.13 30.6193C225.925 30.6662 225.67 30.6917 225.363 30.696C224.86 30.7045 224.391 30.615 223.957 30.4275C223.522 30.24 223.17 29.9502 222.902 29.5582C222.633 29.1662 222.499 28.674 222.499 28.0816V18.3977ZM232.664 30.7663C231.697 30.7663 230.864 30.5596 230.165 30.1463C229.47 29.7287 228.933 29.1427 228.554 28.3885C228.179 27.6299 227.992 26.7414 227.992 25.723C227.992 24.7173 228.179 23.8309 228.554 23.0639C228.933 22.2968 229.462 21.6981 230.139 21.2677C230.821 20.8373 231.618 20.6221 232.53 20.6221C233.084 20.6221 233.621 20.7137 234.141 20.897C234.661 21.0802 235.127 21.3679 235.541 21.7599C235.954 22.152 236.28 22.6612 236.519 23.2876C236.757 23.9098 236.876 24.6662 236.876 25.5568V26.2343H229.072V24.8025H235.004C235.004 24.2997 234.901 23.8544 234.697 23.4666C234.492 23.0745 234.205 22.7656 233.834 22.5397C233.467 22.3139 233.037 22.201 232.543 22.201C232.006 22.201 231.537 22.3331 231.136 22.5973C230.74 22.8572 230.433 23.1981 230.216 23.62C230.003 24.0376 229.896 24.4914 229.896 24.9815V26.1001C229.896 26.7564 230.011 27.3146 230.242 27.7748C230.476 28.235 230.802 28.5866 231.22 28.8295C231.637 29.0681 232.125 29.1875 232.683 29.1875C233.046 29.1875 233.376 29.1363 233.674 29.0341C233.972 28.9275 234.23 28.7699 234.448 28.561C234.665 28.3522 234.831 28.0944 234.946 27.7876L236.755 28.1136C236.61 28.6463 236.35 29.1129 235.975 29.5135C235.604 29.9098 235.138 30.2187 234.575 30.4403C234.017 30.6576 233.38 30.7663 232.664 30.7663ZM238.997 30.5681V20.75H240.844V22.3096H240.947C241.126 21.7812 241.441 21.3657 241.893 21.0632C242.349 20.7564 242.864 20.6029 243.44 20.6029C243.559 20.6029 243.699 20.6072 243.861 20.6157C244.028 20.6243 244.158 20.6349 244.251 20.6477V22.4758C244.175 22.4545 244.038 22.4311 243.842 22.4055C243.646 22.3757 243.45 22.3608 243.254 22.3608C242.802 22.3608 242.4 22.4566 242.046 22.6484C241.697 22.8359 241.42 23.098 241.215 23.4346C241.011 23.767 240.908 24.1463 240.908 24.5724V30.5681H238.997Z" fill="black"/>
<defs>
<clipPath id="clip0_1_7">
<rect width="30" height="30" fill="white" transform="translate(13.3151 9)"/>
</clipPath>
</defs>
</svg>
